<svg width="13" height="14" viewBox="0 0 13 14" fill="none" xmlns="http://www.w3.org/2000/svg">
<path d="M5.24341 1.29469L0.286571 6.33748C0.196351 6.43336 0.125953 6.54612 0.0794153 6.66927C-0.0185063 6.91358 -0.016159 7.18665 0.0859481 7.42924C0.134596 7.55158 0.206922 7.66311 0.298777 7.75743L5.34157 12.7143C5.43561 12.8067 5.54693 12.8797 5.66918 12.9291C5.79143 12.9785 5.92222 13.0034 6.05407 13.0022C6.32036 13 6.57484 12.892 6.76152 12.7021C6.9482 12.5121 7.05178 12.2558 7.0495 11.9896C7.04721 11.7233 6.93923 11.4688 6.74931 11.2821L3.42115 8.0206L11.0109 7.95536C11.2761 7.95308 11.5295 7.84554 11.7154 7.65639C11.9014 7.46725 12.0045 7.212 12.0022 6.9468C12 6.68159 11.8924 6.42815 11.7033 6.24223C11.5141 6.05632 11.2589 5.95315 10.9937 5.95543L3.40396 6.02067L6.67556 2.70243C6.76849 2.60866 6.84193 2.49743 6.89165 2.37513C6.94137 2.25284 6.96638 2.12192 6.96525 1.98991C6.96411 1.8579 6.93685 1.72743 6.88504 1.60601C6.83322 1.48459 6.75788 1.37463 6.66336 1.28248C6.56959 1.18955 6.45835 1.11611 6.33606 1.06639C6.21377 1.01667 6.08285 0.99166 5.95084 0.992795C5.81883 0.99393 5.68836 1.02119 5.56694 1.073C5.44552 1.12482 5.33556 1.20016 5.24341 1.29469Z" fill="black"/>
</svg>
